<?xml version="1.0" standalone="no"?>
<!DOCTYPE svg PUBLIC "-//W3C//DTD SVG 20010904//EN"
 "http://www.w3.org/TR/2001/REC-SVG-20010904/DTD/svg10.dtd">
<svg version="1.0" xmlns="http://www.w3.org/2000/svg"
 width="1024.000000pt" height="1024.000000pt" viewBox="0 0 1024.000000 1024.000000"
 preserveAspectRatio="xMidYMid meet">
<metadata>
Created by potrace 1.14, written by Peter Selinger 2001-2017
</metadata>
<g transform="translate(0.000000,1024.000000) scale(0.100000,-0.100000)"
fill="#000000" stroke="none">
<path d="M5125 8628 c-44 -10 -55 -11 -130 -4 -31 2 -63 -2 -85 -11 -38 -16
-84 -31 -172 -58 -47 -14 -67 -16 -110 -7 -31 6 -128 8 -237 5 -105 -3 -181
-1 -178 4 3 5 -6 10 -21 11 -15 1 -48 7 -73 13 -34 9 -54 9 -78 1 -24 -9 -39
-8 -68 4 -23 10 -66 15 -117 15 -94 -1 -149 -20 -266 -93 -77 -47 -147 -73
-280 -104 -41 -9 -109 -32 -150 -51 -41 -19 -111 -48 -155 -64 -43 -17 -132
-61 -196 -99 -65 -39 -142 -79 -172 -90 -90 -34 -207 -122 -221 -168 -4 -11
-25 -32 -48 -47 -23 -16 -54 -39 -68 -52 -14 -13 -32 -25 -40 -27 -8 -2 -49
-12 -90 -21 -41 -10 -88 -26 -105 -36 -16 -10 -105 -95 -198 -189 -92 -93
-211 -206 -265 -249 -199 -160 -263 -240 -416 -521 -137 -251 -204 -400 -226
-510 -34 -165 -57 -249 -75 -276 -29 -45 -39 -258 -32 -654 1 -42 -6 -72 -31
-127 -30 -68 -33 -81 -36 -205 -4 -136 -19 -244 -42 -288 -14 -28 -10 -152 6
-179 8 -14 9 -14 10 2 0 23 7 22 51 -9 l38 -26 -36 -46 c-69 -90 -77 -146 -32
-233 50 -99 56 -222 16 -349 -33 -105 -33 -131 -3 -195 12 -28 28 -68 35 -90
7 -22 16 -49 21 -60 16 -35 70 -205 70 -220 0 -8 5 -15 10 -15 6 0 10 11 10
25 0 28 8 30 44 14 22 -10 63 -85 53 -96 -2 -2 -16 1 -31 7 -50 19 -59 14 -39
-21 10 -16 30 -43 45 -58 16 -16 32 -48 38 -76 6 -27 26 -79 45 -117 19 -38
35 -75 35 -82 0 -16 71 -155 99 -195 12 -16 21 -32 21 -35 0 -19 64 -105 87
-116 16 -8 94 -80 174 -161 163 -163 128 -145 314 -168 76 -9 176 -57 192 -92
9 -18 33 -34 84 -55 62 -24 77 -35 101 -74 68 -107 218 -217 378 -276 58 -21
383 -32 468 -15 91 17 103 19 365 36 114 7 183 48 274 163 18 22 54 55 79 72
l47 31 41 -17 c128 -52 242 -67 307 -40 19 8 70 17 113 21 150 13 184 26 263
99 59 56 65 65 68 109 5 55 12 70 28 60 20 -12 185 -4 238 11 90 27 147 80
180 167 18 49 28 61 86 99 107 70 156 90 221 90 32 0 63 -5 68 -10 7 -7 9 -1
6 21 -4 27 -2 31 12 26 10 -4 19 -7 21 -7 2 0 17 -19 34 -42 37 -54 89 -109
121 -131 33 -23 78 -21 135 4 l48 21 91 -21 c181 -43 295 -51 502 -37 70 5
114 4 118 -2 9 -14 -21 -23 -51 -16 -39 10 -19 -14 29 -36 38 -17 41 -16 171
11 187 40 248 55 279 67 15 6 42 9 60 6 18 -3 58 -1 88 6 30 6 109 15 174 20
170 12 190 19 293 110 48 42 95 88 103 101 8 13 49 58 90 99 54 55 86 79 117
88 23 7 65 31 94 55 105 85 190 154 293 239 71 59 113 87 128 86 13 -1 45 6
71 15 26 10 56 17 67 17 21 0 169 45 215 65 17 7 59 25 95 40 36 14 72 30 80
35 8 5 44 24 80 41 101 51 214 167 233 239 6 23 81 124 156 210 49 56 76 102
95 160 10 30 22 65 27 78 5 13 9 33 9 46 0 13 7 43 15 67 24 68 21 419 -5 489
-5 14 -27 75 -49 135 -22 61 -43 128 -47 150 -3 22 -21 99 -39 170 -18 72 -38
155 -44 185 -10 45 -21 64 -63 107 -46 47 -52 58 -65 125 -8 40 -16 91 -18
112 -9 77 -49 162 -145 306 -21 30 -68 102 -105 160 -37 58 -84 129 -103 158
-34 52 -210 234 -288 299 -23 18 -86 51 -140 72 l-99 39 -23 59 c-50 126 -73
164 -149 245 -93 98 -143 163 -247 318 -162 241 -239 310 -495 447 -47 25
-127 70 -177 99 -118 71 -195 98 -256 91 l-47 -6 -61 66 c-33 36 -60 69 -60
74 0 11 -149 129 -164 129 -7 0 -27 7 -45 16 -18 9 -50 18 -71 21 -21 3 -65
21 -97 39 -98 58 -214 110 -307 139 -76 24 -100 27 -171 23 -45 -3 -90 -10
-101 -16 -14 -7 -29 -6 -53 4 -47 20 -111 17 -182 -7 -78 -27 -161 -21 -234
17 -154 81 -181 88 -250 72z"/>
</g>
</svg>
